<svg xmlns="http://www.w3.org/2000/svg" xmlns:xlink="http://www.w3.org/1999/xlink" version="1.1" id="logos" x="0px" y="0px" viewBox="0 0 125 40" style="enable-background:new 0 0 125 40;" xml:space="preserve">
<style type="text/css">
	.st0{fill-rule:evenodd;clip-rule:evenodd;fill:none;}
</style>
<g>
	<g>
		<g>
			<g>
				<defs>
					<path id="SVGID_1_" d="M38.2,14.4v-1.5c0-0.2,0.2-0.4,0.4-0.4l6.7,0c0.2,0,0.4,0.2,0.4,0.4v1.3c0,0.2-0.2,0.5-0.5,0.9l-3.5,5       c1.3,0,2.7,0.2,3.8,0.8c0.3,0.1,0.3,0.4,0.4,0.6v1.6c0,0.2-0.2,0.5-0.5,0.3c-2.1-1.1-4.8-1.2-7.1,0c-0.2,0.1-0.5-0.1-0.5-0.3       v-1.5c0-0.2,0-0.7,0.3-1l4-5.8l-3.5,0C38.4,14.8,38.2,14.6,38.2,14.4L38.2,14.4z M13.7,23.7h-2c-0.2,0-0.3-0.2-0.4-0.3l0-10.5       c0-0.2,0.2-0.4,0.4-0.4l1.9,0c0.2,0,0.4,0.2,0.4,0.4v1.4h0c0.5-1.3,1.4-1.9,2.7-1.9c1.3,0,2.1,0.6,2.7,1.9       c0.5-1.3,1.6-1.9,2.8-1.9c0.9,0,1.8,0.4,2.4,1.1c0.6,0.9,0.5,2.2,0.5,3.3l0,6.6c0,0.2-0.2,0.4-0.4,0.4h-2       c-0.2,0-0.4-0.2-0.4-0.4l0-5.5c0-0.4,0-1.5-0.1-2c-0.2-0.7-0.6-0.9-1.2-0.9c-0.5,0-1,0.3-1.2,0.9c-0.2,0.5-0.2,1.4-0.2,2v5.5       c0,0.2-0.2,0.4-0.4,0.4h-2c-0.2,0-0.4-0.2-0.4-0.4l0-5.5c0-1.2,0.2-2.9-1.3-2.9c-1.5,0-1.4,1.7-1.4,2.9l0,5.5       C14.1,23.6,13.9,23.7,13.7,23.7L13.7,23.7z M51.5,12.3c3,0,4.7,2.6,4.7,5.9c0,3.2-1.8,5.7-4.7,5.7c-3,0-4.6-2.6-4.6-5.8       C46.9,14.8,48.5,12.3,51.5,12.3L51.5,12.3z M51.5,14.5c-1.5,0-1.6,2-1.6,3.3c0,1.3,0,4,1.6,4c1.6,0,1.7-2.2,1.7-3.5       c0-0.9,0-1.9-0.3-2.8C52.6,14.7,52.1,14.5,51.5,14.5L51.5,14.5z M60.1,23.7h-2c-0.2,0-0.4-0.2-0.4-0.4l0-10.5       c0-0.2,0.2-0.3,0.4-0.3l1.9,0c0.2,0,0.3,0.1,0.4,0.3v1.6h0c0.6-1.4,1.4-2.1,2.8-2.1c0.9,0,1.8,0.3,2.4,1.2       c0.5,0.8,0.5,2.2,0.5,3.3v6.6c0,0.2-0.2,0.3-0.4,0.3h-2c-0.2,0-0.3-0.2-0.4-0.3v-5.7c0-1.1,0.1-2.8-1.3-2.8       c-0.5,0-1,0.3-1.2,0.8c-0.3,0.6-0.3,1.3-0.3,2v5.6C60.5,23.6,60.3,23.7,60.1,23.7L60.1,23.7z M34.9,23.7       c-0.1,0.1-0.3,0.1-0.5,0c-0.7-0.6-0.8-0.8-1.2-1.4c-1.1,1.1-1.9,1.5-3.4,1.5c-1.7,0-3.1-1.1-3.1-3.2c0-1.7,0.9-2.8,2.2-3.3       c1.1-0.5,2.7-0.6,3.8-0.7v-0.3c0-0.5,0-1.1-0.2-1.5c-0.2-0.4-0.7-0.5-1.1-0.5c-0.8,0-1.5,0.4-1.6,1.2c0,0.2-0.2,0.4-0.4,0.4       l-2-0.2c-0.2,0-0.4-0.2-0.3-0.4c0.5-2.4,2.6-3.1,4.6-3.1c1,0,2.3,0.3,3.1,1c1,0.9,0.9,2.2,0.9,3.5v3.2c0,1,0.4,1.4,0.8,1.9       c0.1,0.2,0.2,0.4,0,0.5C36,22.7,35.3,23.3,34.9,23.7L34.9,23.7L34.9,23.7z M32.8,18.7v-0.4c-1.5,0-3,0.3-3,2.1       c0,0.9,0.5,1.5,1.2,1.5c0.6,0,1.1-0.4,1.4-0.9C32.8,20.2,32.8,19.5,32.8,18.7L32.8,18.7z M8.1,23.7c-0.1,0.1-0.3,0.1-0.5,0       c-0.7-0.6-0.8-0.8-1.2-1.4c-1.1,1.1-1.9,1.5-3.4,1.5c-1.7,0-3.1-1.1-3.1-3.2c0-1.7,0.9-2.8,2.2-3.3c1.1-0.5,2.7-0.6,3.8-0.7       v-0.3c0-0.5,0-1.1-0.2-1.5c-0.2-0.4-0.7-0.5-1.1-0.5c-0.8,0-1.5,0.4-1.6,1.2c0,0.2-0.2,0.4-0.4,0.4l-2-0.2       c-0.2,0-0.4-0.2-0.3-0.4c0.5-2.4,2.6-3.1,4.6-3.1c1,0,2.3,0.3,3.1,1c1,0.9,0.9,2.2,0.9,3.5v3.2c0,1,0.4,1.4,0.8,1.9       c0.1,0.2,0.2,0.4,0,0.5C9.2,22.7,8.5,23.3,8.1,23.7L8.1,23.7L8.1,23.7z M6,18.7v-0.4c-1.5,0-3,0.3-3,2.1c0,0.9,0.5,1.5,1.2,1.5       c0.6,0,1.1-0.4,1.4-0.9C6,20.2,6,19.5,6,18.7L6,18.7z M41,27.7c-3.8,2.8-9.4,4.3-14.2,4.3c-6.7,0-12.8-2.5-17.3-6.6       c-0.4-0.3,0-0.8,0.4-0.5c4.9,2.9,11,4.6,17.3,4.6c4.3,0,8.9-0.9,13.2-2.7C41.1,26.6,41.6,27.3,41,27.7L41,27.7z M42.6,25.9       c-0.5-0.6-3.2-0.3-4.5-0.1c-0.4,0-0.4-0.3-0.1-0.5c2.2-1.5,5.8-1.1,6.2-0.6c0.4,0.5-0.1,4.1-2.2,5.8c-0.3,0.3-0.6,0.1-0.5-0.2       C42,29.1,43,26.6,42.6,25.9L42.6,25.9z M107.7,21.9c0.4-0.3,0.6-0.7,0.6-1.2c0-0.4-0.1-0.6-0.3-0.9c-0.2-0.2-0.6-0.4-1.2-0.7       l-1.9-0.7c-1.6-0.6-2.5-1.6-2.5-3.1c0-1,0.4-1.7,1.1-2.3c0.7-0.6,1.7-0.9,2.9-0.9c1,0,1.9,0.2,2.8,0.5c0.2,0.1,0.3,0.1,0.4,0.2       c0.1,0.1,0.1,0.2,0.1,0.4V14c0,0.3-0.1,0.4-0.3,0.4c-0.1,0-0.3,0-0.5-0.1c-0.8-0.2-1.6-0.4-2.4-0.4c-1.4,0-2.1,0.5-2.1,1.4       c0,0.4,0.1,0.7,0.4,0.9c0.2,0.2,0.7,0.5,1.4,0.7l1.7,0.7c0.9,0.3,1.5,0.7,1.9,1.2c0.4,0.5,0.6,1.1,0.6,1.8c0,1-0.4,1.9-1.2,2.5       c-0.8,0.6-1.8,0.9-3.1,0.9c-1.2,0-2.3-0.2-3.3-0.6c-0.2-0.1-0.3-0.2-0.4-0.2c-0.1-0.1-0.1-0.2-0.1-0.4v-0.6       c0-0.3,0.1-0.4,0.3-0.4c0.1,0,0.3,0,0.6,0.1c1,0.3,2,0.5,3,0.5C106.7,22.4,107.3,22.2,107.7,21.9L107.7,21.9z M97.9,13       c0-0.3,0.1-0.4,0.4-0.4h1.3c0.3,0,0.4,0.1,0.4,0.4v10.3c0,0.3-0.1,0.4-0.4,0.4h-0.9c-0.1,0-0.3,0-0.3-0.1       c-0.1-0.1-0.1-0.2-0.2-0.3L98,22.5c-1.4,1-2.8,1.5-4.2,1.5c-1,0-1.8-0.3-2.4-0.9c-0.6-0.6-0.8-1.4-0.8-2.5V13       c0-0.3,0.1-0.4,0.4-0.4h1.3c0.3,0,0.4,0.1,0.4,0.4v7c0,0.8,0.2,1.4,0.5,1.7c0.3,0.4,0.8,0.6,1.5,0.6c1.1,0,2.1-0.4,3.2-1.1V13       L97.9,13z M86.1,23.7c-0.3,0-0.4-0.1-0.4-0.4v-7.1c0-0.7-0.1-1.3-0.4-1.6c-0.3-0.4-0.7-0.5-1.3-0.5c-1.1,0-2.2,0.3-3.2,1       c0,0.1,0,0.2,0,0.3v8c0,0.3-0.1,0.4-0.4,0.4h-1.3c-0.3,0-0.4-0.1-0.4-0.4v-7.1c0-0.7-0.1-1.3-0.4-1.6c-0.3-0.4-0.7-0.5-1.3-0.5       c-1.1,0-2.2,0.3-3.2,1v8.3c0,0.3-0.1,0.4-0.4,0.4h-1.3c-0.3,0-0.4-0.1-0.4-0.4V13c0-0.3,0.1-0.4,0.4-0.4h1c0.1,0,0.3,0,0.3,0.1       c0.1,0.1,0.1,0.2,0.2,0.3l0.1,0.7c1.4-1,2.8-1.5,4.1-1.5c1.4,0,2.3,0.5,2.8,1.6c1.5-1,2.9-1.6,4.4-1.6c1,0,1.8,0.3,2.3,0.9       c0.5,0.6,0.8,1.4,0.8,2.4v7.8c0,0.3-0.1,0.4-0.4,0.4H86.1L86.1,23.7z M119.8,15c-0.5,0.6-0.8,1.6-0.8,3v0.3       c0,1.3,0.3,2.3,0.8,2.9c0.6,0.6,1.4,0.9,2.6,0.9c0.6,0,1.3-0.1,2-0.3c0.2,0,0.3-0.1,0.3-0.1c0.2,0,0.3,0.1,0.3,0.4v0.6       c0,0.2,0,0.3-0.1,0.4c-0.1,0.1-0.2,0.2-0.4,0.2c-0.7,0.3-1.6,0.5-2.5,0.5c-1.7,0-3.1-0.5-4-1.5c-0.9-1-1.4-2.4-1.4-4.3       c0-1.9,0.5-3.3,1.4-4.3c0.9-1,2.3-1.5,4-1.5c0.8,0,1.6,0.1,2.3,0.4c0.2,0.1,0.3,0.1,0.3,0.2c0.1,0.1,0.1,0.2,0.1,0.4V14       c0,0.3-0.1,0.4-0.3,0.4c-0.1,0-0.2,0-0.4-0.1c-0.6-0.2-1.2-0.3-1.8-0.3C121.2,14.1,120.3,14.4,119.8,15L119.8,15z M113.9,12.6       c0.3,0,0.4,0.1,0.4,0.4v10.3c0,0.3-0.1,0.4-0.4,0.4h-1.3c-0.3,0-0.4-0.1-0.4-0.4V13c0-0.3,0.1-0.4,0.4-0.4H113.9L113.9,12.6z        M114.3,8.3c0.2,0.2,0.4,0.6,0.4,1c0,0.4-0.1,0.7-0.4,1c-0.2,0.2-0.6,0.4-1,0.4c-0.4,0-0.8-0.1-1-0.4c-0.2-0.2-0.4-0.6-0.4-1       c0-0.4,0.1-0.7,0.4-1c0.2-0.2,0.6-0.4,1-0.4C113.7,7.9,114.1,8,114.3,8.3L114.3,8.3z"/>
				</defs>
				<use xlink:href="#SVGID_1_" style="overflow:visible;fill-rule:evenodd;clip-rule:evenodd;fill:#4200FD;"/>
				<clipPath id="SVGID_2_">
					<use xlink:href="#SVGID_1_" style="overflow:visible;"/>
				</clipPath>
			</g>
		</g>
		<rect x="0" y="0" class="st0" width="125" height="40"/>
	</g>
</g>
<script xmlns="" extensionBaseUrl="chrome-extension://doocmbmlcnbbdohogchldhlikjpndpng"/></svg>